<?xml version="1.0" standalone="no"?><!DOCTYPE svg PUBLIC "-//W3C//DTD SVG 1.1//EN" "http://www.w3.org/Graphics/SVG/1.1/DTD/svg11.dtd"><svg t="1652288686398" class="icon" viewBox="0 0 1024 1024" version="1.1" xmlns="http://www.w3.org/2000/svg" p-id="22732" xmlns:xlink="http://www.w3.org/1999/xlink" width="30" height="30"><defs><style type="text/css">@font-face { font-family: feedback-iconfont; src: url("//at.alicdn.com/t/font_1031158_u69w8yhxdu.woff2?t=1630033759944") format("woff2"), url("//at.alicdn.com/t/font_1031158_u69w8yhxdu.woff?t=1630033759944") format("woff"), url("//at.alicdn.com/t/font_1031158_u69w8yhxdu.ttf?t=1630033759944") format("truetype"); }
</style></defs><path d="M0 0v1024h1024V0z m158.848 132.736h213.344v78.24H312.9v267.808h59.3v78.24H158.848v-78.24h61.6V210.976h-61.6z m471.68 0h94.816V410.08c0 26.112-2.336 47.392-9.472 66.4-7.136 18.944-16.64 33.152-30.848 47.36-11.808 11.9-28.416 23.776-47.36 28.512a165.569 165.569 0 0 1-61.632 11.872H576c-33.184 0-61.6-7.136-82.944-18.976a207.6 207.6 0 0 1-54.336-44.768l-0.224-0.288 59.3-66.336a136.678 136.678 0 0 0 35.552 30.816c11.808 7.136 26.08 11.872 40.32 11.872 16.608 0 30.752-4.736 42.656-16.608 9.44-11.872 14.208-28.448 14.208-54.528zM94.816 832h384v64h-384z" p-id="22733" data-spm-anchor-id="a313x.7781069.0.i33" class="selected" fill="#000000"></path></svg>