<?xml version="1.0" standalone="no"?><!DOCTYPE svg PUBLIC "-//W3C//DTD SVG 1.1//EN" "http://www.w3.org/Graphics/SVG/1.1/DTD/svg11.dtd"><svg t="1652288218778" class="icon" viewBox="0 0 1024 1024" version="1.1" xmlns="http://www.w3.org/2000/svg" p-id="8924" width="30" height="30" xmlns:xlink="http://www.w3.org/1999/xlink"><defs><style type="text/css">@font-face { font-family: feedback-iconfont; src: url("//at.alicdn.com/t/font_1031158_u69w8yhxdu.woff2?t=1630033759944") format("woff2"), url("//at.alicdn.com/t/font_1031158_u69w8yhxdu.woff?t=1630033759944") format("woff"), url("//at.alicdn.com/t/font_1031158_u69w8yhxdu.ttf?t=1630033759944") format("truetype"); }
</style></defs><path d="M102.4 102.4v819.2h819.2V102.4H102.4z m445.792 638.976c0 79.872-46.752 116.064-115.04 116.064-61.44 0-97.28-31.744-115.36-70.304l62.816-37.888c11.936 21.504 23.2 39.584 49.504 39.584 25.248 0 41.312-9.888 41.312-48.48v-261.792h77.152v262.816z m181.92 116.064c-71.328 0-117.76-34.144-140.288-78.496l62.816-36.192c16.384 26.976 37.888 46.752 75.776 46.752 31.744 0 52.224-16.032 52.224-37.888 0-26.272-20.832-35.84-55.968-51.2l-19.104-8.192c-55.648-23.552-92.512-53.248-92.512-116.064 0-57.696 44.032-101.728 112.64-101.728 48.8 0 83.968 17.056 109.568 61.44l-60.064 38.56c-13.312-23.552-27.648-33.12-49.504-33.12-22.528 0-36.864 14.336-36.864 33.12 0 23.2 14.336 32.416 47.456 46.752l19.104 8.192c65.536 28 102.4 56.672 102.4 120.832 0 69.28-54.272 107.168-127.648 107.168z" fill="#F7DF1E" p-id="8925"></path><path d="M471.392 740.352c0 38.56-16.032 48.48-41.312 48.48-26.272 0-37.536-18.08-49.504-39.584L317.76 787.136c18.08 38.56 53.92 70.304 115.36 70.304 68.256 0 115.04-36.192 115.04-116.064v-262.816h-77.152v261.792zM755.36 629.088l-19.104-8.192c-33.12-14.336-47.456-23.552-47.456-46.752 0-18.784 14.336-33.12 36.864-33.12 21.856 0 36.192 9.216 49.504 33.12l60.064-38.56c-25.248-44.384-60.416-61.44-109.568-61.44-68.608 0-112.64 44.032-112.64 101.728 0 62.816 36.864 92.512 92.512 116.064l19.104 8.192c35.168 15.36 55.968 24.576 55.968 51.2 0 21.856-20.48 37.888-52.224 37.888-37.888 0-59.392-19.808-75.776-46.752l-62.816 36.192c22.528 44.704 68.608 78.496 140.288 78.496 73.056 0 127.648-37.888 127.648-107.168 0-64.16-36.864-92.832-102.4-120.832zM317.792 787.104z" p-id="8926"></path></svg>